<svg width="22" height="22" viewBox="0 0 22 22" fill="none" xmlns="http://www.w3.org/2000/svg">
<path d="M11.768 0.0268973C10.1965 -0.0832033 8.61965 0.145549 7.14423 0.697675C5.66881 1.2498 4.3292 2.11242 3.21605 3.22715C2.10291 4.34188 1.24221 5.68272 0.692187 7.15893C0.142166 8.63514 -0.084337 10.2123 0.0280049 11.7836C0.431453 17.6076 5.5955 22 12.0395 22H17.8755C18.969 21.9985 20.0173 21.5635 20.7905 20.7903C21.5637 20.0171 21.9988 18.9688 22.0002 17.8753V11.326C22.0002 5.38086 17.506 0.417456 11.768 0.0268973ZM21.0834 17.8753C21.0824 18.7258 20.7442 19.5412 20.1428 20.1426C19.5414 20.7439 18.726 21.0822 17.8755 21.0831H12.0395C5.98606 21.0831 1.31955 17.1457 0.944034 11.7209C0.844852 10.3384 1.03181 8.9503 1.49323 7.64332C1.95465 6.33633 2.68061 5.13853 3.62578 4.12474C4.57094 3.11095 5.715 2.30294 6.98649 1.75119C8.25798 1.19945 9.62959 0.915812 11.0156 0.918006C11.2446 0.918006 11.4758 0.925311 11.7057 0.940778C16.9642 1.29825 21.0825 5.85949 21.0825 11.3252V17.8753H21.0834Z" fill="#020202"/>
<path d="M11.0002 11.0006C10.5016 11.0007 10.0142 10.8529 9.59963 10.576C9.18503 10.299 8.86187 9.90536 8.67101 9.44475C8.48015 8.98414 8.43017 8.47728 8.52739 7.98827C8.6246 7.49925 8.86465 7.05005 9.21718 6.69746C9.5697 6.34488 10.0189 6.10475 10.5079 6.00745C10.9969 5.91015 11.5037 5.96005 11.9644 6.15083C12.425 6.34161 12.8187 6.66471 13.0957 7.07926C13.3727 7.49381 13.5206 7.9812 13.5206 8.47979C13.5198 9.14802 13.254 9.78867 12.7816 10.2612C12.3091 10.7338 11.6685 10.9997 11.0002 11.0006ZM11.0002 6.7994C10.6679 6.7994 10.343 6.89795 10.0667 7.08259C9.79032 7.26724 9.57494 7.52968 9.44775 7.83673C9.32057 8.14378 9.28729 8.48165 9.35213 8.80761C9.41697 9.13358 9.57701 9.43299 9.81202 9.668C10.047 9.90301 10.3464 10.063 10.6724 10.1279C10.9984 10.1927 11.3362 10.1594 11.6433 10.0323C11.9503 9.90508 12.2128 9.6897 12.3974 9.41336C12.5821 9.13702 12.6806 8.81213 12.6806 8.47979C12.6801 8.03429 12.5028 7.60721 12.1878 7.2922C11.8728 6.97719 11.4457 6.79996 11.0002 6.7994ZM15.201 15.6215C15.201 13.6077 13.2375 11.8406 11.0002 11.8406C8.76301 11.8406 6.79904 13.6077 6.79904 15.6215C6.79724 15.6778 6.80677 15.7339 6.82707 15.7864C6.84737 15.839 6.87801 15.8869 6.91719 15.9273C6.95637 15.9678 7.00328 15.9999 7.05513 16.0219C7.10698 16.0439 7.16272 16.0552 7.21903 16.0552C7.27535 16.0552 7.33108 16.0439 7.38294 16.0219C7.43479 15.9999 7.4817 15.9678 7.52088 15.9273C7.56005 15.8869 7.5907 15.839 7.611 15.7864C7.63129 15.7339 7.64082 15.6778 7.63902 15.6215C7.63902 14.2338 9.0758 12.681 11.0002 12.681C12.9247 12.681 14.361 14.2338 14.361 15.6215C14.3592 15.6778 14.3687 15.7339 14.389 15.7864C14.4093 15.839 14.44 15.8869 14.4792 15.9273C14.5183 15.9678 14.5652 15.9999 14.6171 16.0219C14.6689 16.0439 14.7247 16.0552 14.781 16.0552C14.8373 16.0552 14.8931 16.0439 14.9449 16.0219C14.9968 15.9999 15.0437 15.9678 15.0828 15.9273C15.122 15.8869 15.1527 15.839 15.173 15.7864C15.1933 15.7339 15.2028 15.6778 15.201 15.6215Z" fill="#020202"/>
</svg>
