<svg width="20" height="20" viewBox="0 0 20 20" fill="none" xmlns="http://www.w3.org/2000/svg">
<path d="M19.5249 4.09829C19.1249 3.61516 18.5415 3.33194 17.9165 3.33194H5.40829L5.19163 1.79925C5.04996 0.774677 4.16664 0 3.12498 0H2.07498C1.84165 0 1.65832 0.183257 1.65832 0.416493C1.65832 0.649729 1.84165 0.832986 2.07498 0.832986H3.12498C3.74997 0.832986 4.27497 1.29946 4.36663 1.90754L5.84996 12.5948C6.10829 14.4357 7.69994 15.8267 9.56659 15.8267H16.2499C16.4832 15.8267 16.6665 15.6435 16.6665 15.4102C16.6665 15.177 16.4832 14.9938 16.2499 14.9938H9.56659C8.12494 14.9938 6.88328 13.9192 6.68328 12.4948H15.5499C17.3332 12.4948 18.8749 11.2287 19.2249 9.47938L19.9582 5.82257C20.0832 5.20616 19.9248 4.58142 19.5249 4.08996V4.09829ZM19.1415 5.66431L18.4082 9.32112C18.1332 10.6789 16.9332 11.6618 15.5499 11.6618H6.56662L5.52496 4.16493H17.9165C18.2915 4.16493 18.6415 4.33153 18.8832 4.62307C19.1249 4.91462 19.2165 5.28946 19.1415 5.66431ZM7.49994 16.6681C6.58328 16.6681 5.83329 17.4177 5.83329 18.334C5.83329 19.2503 6.58328 20 7.49994 20C8.4166 20 9.1666 19.2503 9.1666 18.334C9.1666 17.4177 8.4166 16.6681 7.49994 16.6681ZM7.49994 19.167C7.04161 19.167 6.66662 18.7922 6.66662 18.334C6.66662 17.8759 7.04161 17.501 7.49994 17.501C7.95827 17.501 8.33327 17.8759 8.33327 18.334C8.33327 18.7922 7.95827 19.167 7.49994 19.167ZM14.9999 16.6681C14.0832 16.6681 13.3332 17.4177 13.3332 18.334C13.3332 19.2503 14.0832 20 14.9999 20C15.9165 20 16.6665 19.2503 16.6665 18.334C16.6665 17.4177 15.9165 16.6681 14.9999 16.6681ZM14.9999 19.167C14.5416 19.167 14.1666 18.7922 14.1666 18.334C14.1666 17.8759 14.5416 17.501 14.9999 17.501C15.4582 17.501 15.8332 17.8759 15.8332 18.334C15.8332 18.7922 15.4582 19.167 14.9999 19.167ZM0 4.58142C0 4.34819 0.183332 4.16493 0.416663 4.16493H2.53331C2.76665 4.16493 2.94998 4.34819 2.94998 4.58142C2.94998 4.81466 2.76665 4.99792 2.53331 4.99792H0.416663C0.183332 4.99792 0 4.81466 0 4.58142ZM0 7.91337C0 7.68013 0.183332 7.49688 0.416663 7.49688H2.91664C3.14998 7.49688 3.33331 7.68013 3.33331 7.91337C3.33331 8.14661 3.14998 8.32986 2.91664 8.32986H0.416663C0.183332 8.32986 0 8.14661 0 7.91337ZM4.16664 11.2453C4.16664 11.4785 3.9833 11.6618 3.74997 11.6618H0.416663C0.183332 11.6618 0 11.4785 0 11.2453C0 11.0121 0.183332 10.8288 0.416663 10.8288H3.74997C3.9833 10.8288 4.16664 11.0121 4.16664 11.2453Z" fill="#020202"/>
</svg>
