<svg width="18" height="17" viewBox="0 0 18 17" fill="none" xmlns="http://www.w3.org/2000/svg">
<path d="M17.5875 3.44648L15.6919 0.434961C15.5232 0.166016 15.2221 0 14.9012 0H3.09747C2.77657 0 2.47552 0.166016 2.3068 0.434961L0.407873 3.44648C-0.571364 5.00039 0.295393 7.16191 2.12485 7.41094C2.25718 7.42754 2.39281 7.4375 2.52514 7.4375C3.38859 7.4375 4.1561 7.05898 4.68211 6.47461C5.20812 7.05898 5.97563 7.4375 6.83908 7.4375C7.70253 7.4375 8.47004 7.05898 8.99605 6.47461C9.52205 7.05898 10.2896 7.4375 11.153 7.4375C12.0198 7.4375 12.784 7.05898 13.31 6.47461C13.8393 7.05898 14.6035 7.4375 15.4669 7.4375C15.6026 7.4375 15.7349 7.42754 15.8672 7.41094C17.7033 7.16523 18.5734 5.00371 17.5908 3.44648H17.5875ZM16.0029 8.46348H15.9996C15.8242 8.48672 15.6456 8.5 15.4636 8.5C15.0534 8.5 14.6597 8.43691 14.2925 8.32402V12.75H3.70618V8.3207C3.33566 8.43691 2.93867 8.5 2.52845 8.5C2.3465 8.5 2.16454 8.48672 1.98921 8.46348H1.9859C1.85026 8.44355 1.71793 8.42031 1.58891 8.38711V12.75V14.875C1.58891 16.0471 2.53837 17 3.70618 17H14.2925C15.4603 17 16.4098 16.0471 16.4098 14.875V12.75V8.38711C16.2775 8.42031 16.1451 8.44687 16.0029 8.46348Z" fill="#020202"/>
</svg>
