<svg width="33" height="31" viewBox="0 0 33 31" fill="none" xmlns="http://www.w3.org/2000/svg">
<path d="M32.6528 16.3265C32.6528 18.1231 31.1808 19.5895 29.3842 19.5895L3.26856 19.5895C1.56147 19.5895 0.151027 18.263 0.0111006 16.5951L-9.16954e-05 16.3265C-9.16168e-05 14.5298 1.47192 13.0634 3.26856 13.0634L29.3842 13.0634C31.1808 13.0634 32.6528 14.5298 32.6528 16.3265Z" fill="#020202"/>
<path d="M22.8579 3.7332C22.8579 5.52984 21.3859 6.99625 19.5893 6.99625L3.26839 6.99625C1.47176 6.99625 -0.000257734 5.52984 -0.000257655 3.7332L-0.000257635 3.26865C-0.000257556 1.47201 1.47176 -9.34818e-07 3.26839 -8.56285e-07L19.5893 -1.42877e-07C21.3859 -6.43438e-08 22.8579 1.47201 22.8579 3.26865L22.8579 3.7332ZM13.9923 27.0559C13.9923 28.8526 12.5258 30.319 10.7292 30.319L3.26839 30.319C1.47175 30.319 -0.000258753 28.8526 -0.000258675 27.0559C-0.000258596 25.2593 1.47175 23.7873 3.26839 23.7873L10.7292 23.7873C12.5258 23.7873 13.9923 25.2593 13.9923 27.0559Z" fill="#020202"/>
</svg>
