<svg width="22" height="22" viewBox="0 0 22 22" fill="none" xmlns="http://www.w3.org/2000/svg">
<path d="M13.5208 6.41657C12.4217 6.41657 11.5142 6.92166 10.9999 7.73108C10.4857 6.92166 9.57815 6.41657 8.47906 6.41657C6.83638 6.41657 5.49987 7.85575 5.49987 9.62493C5.49987 12.7077 10.5223 16.2671 10.7368 16.4165C10.8157 16.4725 10.9082 16.5 10.9999 16.5C11.0916 16.5 11.1842 16.4725 11.263 16.4165C11.4766 16.2671 16.5 12.7077 16.5 9.62493C16.5 7.85575 15.1634 6.41657 13.5208 6.41657ZM10.9999 15.476C9.51032 14.3733 6.41654 11.6599 6.41654 9.62493C6.41654 8.36084 7.34147 7.33325 8.47906 7.33325C9.69365 7.33325 10.5416 8.17292 10.5416 9.37559V9.62493C10.5416 9.87793 10.7469 10.0833 10.9999 10.0833C11.2529 10.0833 11.4583 9.87793 11.4583 9.62493V9.37559C11.4583 8.17292 12.3062 7.33325 13.5208 7.33325C14.6584 7.33325 15.5833 8.36084 15.5833 9.62493C15.5833 11.6599 12.4895 14.3733 10.9999 15.476ZM11.7672 0.0255362C8.5799 -0.190798 5.46412 0.975208 3.21552 3.22656C0.968753 5.47882 -0.193589 8.59734 0.0264122 11.7828C0.430665 17.6073 5.59429 22 12.0385 22H17.875C20.1492 22 22 20.1492 22 17.875V11.3254C22 5.37982 17.5055 0.416039 11.7672 0.0255362ZM21.0833 17.875C21.0833 19.6442 19.6441 21.0833 17.875 21.0833H12.0385C5.98479 21.0833 1.31801 17.1453 0.942169 11.7204C0.739584 8.79809 1.80476 5.93807 3.86453 3.87464C5.76296 1.97438 8.33606 0.916541 11.0146 0.916541C11.2437 0.916541 11.4748 0.923875 11.7048 0.939458C16.9638 1.29696 21.0824 5.85832 21.0824 11.3244V17.8741L21.0833 17.875Z" fill="#020202"/>
</svg>
