<svg width="165" height="37" viewBox="0 0 165 37" fill="none" xmlns="http://www.w3.org/2000/svg">
<path fill-rule="evenodd" clip-rule="evenodd" d="M23.1656 18.7035C23.166 18.7748 23.1453 18.8445 23.106 18.9039C23.0667 18.9634 23.0107 19.0098 22.9451 19.0373C22.8794 19.0649 22.807 19.0723 22.7371 19.0587C22.6672 19.045 22.6029 19.011 22.5524 18.9608C22.5019 18.9105 22.4674 18.8465 22.4534 18.7766C22.4393 18.7068 22.4463 18.6344 22.4735 18.5686C22.5006 18.5027 22.5467 18.4464 22.6059 18.4068C22.6651 18.3672 22.7347 18.346 22.8059 18.346C22.9009 18.346 22.9921 18.3836 23.0595 18.4506C23.1269 18.5176 23.165 18.6085 23.1656 18.7035Z" fill="white"/>
<path fill-rule="evenodd" clip-rule="evenodd" d="M38.9468 7.04292L41.3551 6.96585C42.2328 6.94016 43.1105 6.91733 43.9883 6.89735C45.1528 6.86952 46.3174 6.83312 47.4841 6.82242C48.4856 6.81827 49.4864 6.87403 50.4812 6.9894C51.4488 7.0943 52.4078 7.20347 53.3776 7.35761C55.058 7.59547 56.7025 8.04056 58.2735 8.68274C59.126 9.0196 59.915 9.49881 60.6069 10.0999C61.1968 10.5995 61.6215 11.266 61.825 12.0116C61.9521 12.5821 61.9782 13.1704 61.9021 13.7499C61.718 15.6316 60.7889 17.1109 59.3996 18.3333C58.5547 19.0729 57.5999 19.6767 56.5695 20.1229C56.5035 20.1509 56.4432 20.1908 56.3918 20.2407C56.5245 20.2535 56.6551 20.2685 56.7878 20.2792C57.7673 20.3423 58.7334 20.5404 59.6586 20.8679C60.6083 21.1833 61.4711 21.7163 62.1783 22.4242C62.8243 23.0914 63.2573 23.9357 63.422 24.8497C63.6038 25.7963 63.5701 26.7716 63.3236 27.7033C63.0587 28.6532 62.5614 29.5222 61.8764 30.2316C61.0425 31.1109 60.0724 31.8504 59.0035 32.4216C57.4537 33.2633 55.8162 33.9324 54.1205 34.4168C52.4817 34.9063 50.8107 35.2804 49.1196 35.5364C48.3619 35.6551 47.5961 35.7153 46.829 35.7162C44.2965 35.7162 41.7662 35.7162 39.2336 35.7162C39.1373 35.7162 39.041 35.7162 38.9468 35.7055V7.04292ZM48.0364 23.3533V31.06C48.2505 31.0322 48.4475 31.0215 48.638 30.9766C50.0637 30.6507 51.3625 29.9139 52.3736 28.8572C53.0025 28.2441 53.4131 27.4417 53.5424 26.573C53.6012 26.2369 53.5731 25.8912 53.4607 25.569C53.3483 25.2468 53.1553 24.9586 52.9002 24.732C52.717 24.5722 52.52 24.429 52.3115 24.3038C51.9166 24.0718 51.4916 23.8953 51.0485 23.7793C50.2751 23.5616 49.4806 23.4274 48.6787 23.379C48.4731 23.3683 48.2612 23.364 48.0364 23.3533ZM47.8973 19.0718C48.3265 19.0218 48.7506 18.9344 49.1646 18.8106C49.9722 18.5986 50.7287 18.2258 51.3889 17.7146C52.7739 16.6057 52.8703 14.9616 52.3608 13.7157C52.2104 13.3643 51.987 13.0489 51.7054 12.7905C51.4238 12.5322 51.0904 12.3367 50.7274 12.2171C49.8282 11.8703 48.8863 11.8232 47.9444 11.8553L47.9016 11.8789L47.8973 19.0718Z" fill="#020202"/>
<path fill-rule="evenodd" clip-rule="evenodd" d="M80.0494 36.671C79.9487 36.6581 79.8481 36.6388 79.7475 36.6303C77.8355 36.5374 75.9569 36.094 74.2051 35.3223C71.3301 34.0014 69.3756 31.8286 68.2666 28.8765C67.8368 27.744 67.575 26.5547 67.4896 25.3464C67.4489 24.7598 67.4703 24.1668 67.4767 23.576C67.4767 22.8695 67.5024 22.1609 67.5088 21.4523C67.5088 20.6709 67.5088 19.8896 67.5259 19.0975C67.5409 17.903 67.5581 16.7063 67.5709 15.5117L67.6159 11.9281C67.6159 11.6027 67.6287 11.2859 67.6351 10.9541C67.6351 10.8834 67.6501 10.8106 67.6544 10.7229H77.093V11.0054C77.093 15.3626 77.093 19.7155 77.093 24.064C77.093 24.4537 77.093 24.8454 77.1251 25.235C77.1885 26.3435 77.4893 27.4255 78.0071 28.4076C78.3409 29.0545 78.8536 29.5918 79.4842 29.9554C79.9176 30.1977 80.3995 30.3403 80.895 30.3729C81.5512 30.4293 82.212 30.3507 82.8366 30.1416C83.8065 29.7929 84.6072 29.0879 85.0759 28.17C85.4832 27.3994 85.7458 26.5606 85.8508 25.6953C85.9136 25.2048 85.9422 24.7105 85.9364 24.216C85.9364 19.7804 85.9364 15.3448 85.9364 10.9091V10.6415C86.1056 10.588 94.5722 10.5687 94.9704 10.618C94.9704 10.6758 94.9875 10.74 94.9875 10.8021C94.9875 11.1703 94.9875 11.5406 94.9875 11.9088C94.9875 15.7922 95.0025 19.6734 94.9875 23.5567C94.9858 25.674 94.5341 27.7668 93.6624 29.6964C92.2795 32.7534 89.9782 34.8021 86.7992 35.866C85.7775 36.2069 84.7215 36.4345 83.6501 36.5446C83.2969 36.581 82.9437 36.6046 82.5947 36.6388C82.5448 36.646 82.4954 36.6568 82.447 36.671H80.0494Z" fill="#020202"/>
<path fill-rule="evenodd" clip-rule="evenodd" d="M156.581 0C156.649 0.0372264 156.721 0.0680421 156.795 0.0920525C157.223 0.201231 157.651 0.306128 158.079 0.404603C158.149 0.408491 158.215 0.435822 158.266 0.482111C158.318 0.5284 158.353 0.590898 158.364 0.659352C158.405 0.808802 158.456 0.955402 158.516 1.09821C158.527 1.14897 158.557 1.19349 158.6 1.22228C158.644 1.25107 158.696 1.26186 158.747 1.25234C158.819 1.24837 158.89 1.24837 158.961 1.25234C160.415 1.25234 161.869 1.25234 163.32 1.25234C163.581 1.25234 163.836 1.22237 164.093 1.22879C164.292 1.23223 164.49 1.25735 164.684 1.30372C164.926 1.36152 164.988 1.45357 164.981 1.69762C164.979 1.86632 164.964 2.03459 164.934 2.2007C164.836 2.73803 164.735 3.27107 164.624 3.8084C164.588 3.96615 164.535 4.1197 164.467 4.26652C164.427 4.36657 164.359 4.45325 164.271 4.51679C164.184 4.58033 164.081 4.61821 163.973 4.62617C163.877 4.62617 163.782 4.64544 163.686 4.64758C162.686 4.67969 161.682 4.70752 160.689 4.73749C160.332 4.74819 159.98 4.76104 159.619 4.77602C159.56 4.77728 159.502 4.78888 159.447 4.81028C159.176 4.94514 158.906 5.08215 158.642 5.22772C158.573 5.25732 158.512 5.30377 158.466 5.36284C158.419 5.42192 158.388 5.49174 158.375 5.56596C158.445 5.58169 158.517 5.59242 158.589 5.59807H162.706C163.059 5.59807 163.414 5.59807 163.776 5.59807C163.864 5.59759 163.952 5.60911 164.037 5.63233C164.087 5.64025 164.132 5.66666 164.164 5.70633C164.195 5.74599 164.21 5.796 164.206 5.8464C164.208 5.89417 164.194 5.9412 164.166 5.98C164.138 6.0188 164.098 6.04713 164.052 6.06048C163.995 6.07969 163.936 6.09542 163.877 6.10757L163.99 6.23816C164.075 6.32085 164.141 6.42128 164.183 6.53228C164.225 6.64328 164.241 6.76214 164.232 6.88039C164.183 7.39631 163.737 7.63393 163.247 7.52261C163.15 7.50388 163.058 7.46405 162.978 7.40594C162.898 7.34783 162.832 7.27286 162.784 7.1863C162.736 7.09975 162.707 7.00373 162.7 6.905C162.694 6.80628 162.709 6.70726 162.744 6.61493C162.814 6.44157 162.9 6.27466 162.999 6.11614C162.868 6.07332 159.687 6.0669 159.439 6.11614C159.551 6.20096 159.639 6.31297 159.695 6.44149C159.751 6.57002 159.774 6.71079 159.76 6.85042C159.748 7.04476 159.663 7.22742 159.522 7.36206C159.373 7.48519 159.185 7.54985 158.992 7.54394C158.799 7.53803 158.614 7.46195 158.473 7.32994C158.386 7.24906 158.319 7.14871 158.279 7.03709C158.238 6.92547 158.224 6.80575 158.238 6.68772C158.26 6.56533 158.308 6.44885 158.377 6.34541C158.446 6.24197 158.536 6.15376 158.64 6.08617L158.411 6.05191C158.296 6.0459 158.185 6.00504 158.093 5.93472C158.002 5.8644 157.933 5.76792 157.898 5.65802C157.857 5.54887 157.853 5.4298 157.886 5.31813C157.918 5.20647 157.985 5.10804 158.077 5.0372C158.248 4.91427 158.429 4.80476 158.617 4.70966C158.726 4.64758 158.844 4.59834 158.953 4.5384C159.019 4.49773 159.079 4.44421 159.152 4.38855C159.092 4.21086 159.036 4.04389 158.979 3.87905C158.651 2.93926 158.319 1.99946 158 1.05967C157.984 0.994232 157.949 0.934957 157.9 0.889264C157.85 0.843572 157.788 0.81349 157.722 0.802783C157.349 0.729997 156.986 0.640086 156.622 0.552315C156.535 0.534426 156.451 0.508628 156.369 0.475248C156.172 0.389617 156.142 0.244046 156.277 0.0727857C156.294 0.0492374 156.309 0.0235483 156.324 0L156.581 0ZM159.006 6.36661C158.951 6.36132 158.894 6.36812 158.841 6.38653C158.788 6.40494 158.74 6.43454 158.699 6.47331C158.658 6.51209 158.627 6.55913 158.606 6.61127C158.585 6.66341 158.576 6.71941 158.578 6.77549C158.582 6.88966 158.63 6.99794 158.712 7.07771C158.793 7.15749 158.903 7.2026 159.017 7.20364C159.072 7.20686 159.128 7.19871 159.18 7.17969C159.232 7.16067 159.279 7.13119 159.319 7.09306C159.359 7.05493 159.391 7.00898 159.413 6.95804C159.435 6.9071 159.446 6.85225 159.445 6.7969C159.446 6.73958 159.434 6.68278 159.412 6.62988C159.39 6.57697 159.358 6.52903 159.317 6.48891C159.276 6.44878 159.227 6.41727 159.174 6.39627C159.121 6.37526 159.064 6.36517 159.006 6.36661ZM163.448 6.36661C163.393 6.36305 163.337 6.37103 163.285 6.39007C163.233 6.4091 163.185 6.43876 163.145 6.47719C163.105 6.51561 163.073 6.56195 163.051 6.6133C163.03 6.66464 163.019 6.71987 163.02 6.77549C163.02 6.88649 163.063 6.99318 163.14 7.07306C163.217 7.15294 163.323 7.19976 163.433 7.20364C163.491 7.20711 163.549 7.19896 163.603 7.17967C163.657 7.16038 163.707 7.13036 163.749 7.09139C163.792 7.05242 163.826 7.00531 163.849 6.95287C163.873 6.90043 163.886 6.84374 163.887 6.78619C163.888 6.72878 163.877 6.67178 163.855 6.61883C163.833 6.56588 163.8 6.51814 163.758 6.47866C163.717 6.43918 163.667 6.40883 163.613 6.38953C163.559 6.37024 163.501 6.36243 163.444 6.36661H163.448Z" fill="#26A6FB"/>
<path fill-rule="evenodd" clip-rule="evenodd" d="M112.561 13.2877H100.707C100.649 13.1186 100.639 5.22346 100.694 4.97513H127.73C127.687 5.05648 127.653 5.12498 127.614 5.1892C126.487 7.08449 125.357 8.97905 124.226 10.8729L114.048 27.924C113.971 28.0568 113.89 28.1895 113.813 28.3243C113.78 28.3858 113.75 28.4495 113.725 28.5149H125.848C125.9 28.7054 125.91 36.0546 125.848 36.2837H98.5151C103.197 28.6176 107.862 20.9794 112.561 13.2877Z" fill="#26A6FB"/>
<path fill-rule="evenodd" clip-rule="evenodd" d="M149.448 9.74672V16.5094L141.487 16.4665V21.8463C143.869 21.6322 146.241 21.3881 148.611 21.1634C148.664 21.3303 148.686 26.7529 148.635 27.196H141.369C141.345 27.7783 141.369 28.3456 141.356 28.9086C141.343 29.4716 141.356 30.0454 141.356 30.6212V35.759H132.32V10.6758C132.398 10.661 132.478 10.6503 132.557 10.6437C133.234 10.6073 133.913 10.5752 134.589 10.5367L138.228 10.3333L140.217 10.2305C141.469 10.1642 142.72 10.0914 143.972 10.0165C144.627 9.98006 145.282 9.95009 145.939 9.9137L149.183 9.7403C149.268 9.7403 149.35 9.74672 149.448 9.74672Z" fill="#020202"/>
<path fill-rule="evenodd" clip-rule="evenodd" d="M165 10.6846V35.603C164.837 35.6501 156.09 35.6608 155.795 35.6137V10.7039C155.955 10.6546 164.656 10.6375 165 10.6846Z" fill="#020202"/>
<path fill-rule="evenodd" clip-rule="evenodd" d="M153.311 2.40385C153.647 2.45522 153.979 2.51945 154.317 2.55156C154.514 2.57375 154.713 2.56581 154.908 2.52801C155.197 2.47235 155.261 2.23473 155.062 2.02065C154.881 1.8538 154.651 1.74948 154.407 1.72309C154.16 1.67521 153.906 1.68105 153.662 1.74021C152.968 1.89221 152.277 2.03778 151.585 2.18335C151.535 2.1955 151.483 2.19911 151.431 2.19405C152.384 1.91789 153.294 1.51329 154.28 1.36344C154.551 1.31551 154.829 1.32352 155.096 1.38699C155.162 1.40625 155.235 1.41696 155.332 1.43622C155.045 1.1301 154.184 0.96954 153.506 1.08728C153.759 0.916252 154.056 0.821861 154.362 0.815406C154.718 0.792716 155.073 0.870606 155.387 1.04019C155.447 1.0723 155.503 1.10655 155.561 1.14294C155.694 1.23623 155.844 1.30191 156.003 1.33611C156.162 1.3703 156.326 1.37232 156.485 1.34203C156.661 1.3165 156.837 1.30078 157.014 1.29494C157.065 1.29031 157.116 1.30394 157.157 1.33337C157.199 1.3628 157.229 1.4061 157.241 1.45549C157.532 2.31179 157.834 3.1681 158.127 4.0244C158.147 4.07792 158.16 4.13572 158.179 4.21064C158.055 4.28129 157.93 4.34551 157.817 4.42472C157.64 4.53082 157.471 4.65034 157.312 4.78222C157.217 4.86767 157.14 4.97119 157.085 5.08675C157.03 5.20231 156.999 5.32761 156.993 5.45533C156.987 5.58305 157.007 5.71065 157.051 5.83068C157.095 5.95071 157.163 6.06077 157.25 6.15445L157.327 6.22509C157.323 6.24004 157.317 6.25443 157.31 6.26791L156.667 6.1309C156.646 6.12446 156.628 6.11177 156.614 6.09451C156.4 5.82691 156.104 5.79052 155.803 5.76269C155.66 5.75481 155.517 5.75481 155.374 5.76269C155.454 5.60213 155.606 5.5636 155.743 5.46084C155.068 5.05624 154.375 5.15686 153.675 5.31527C153.853 5.13777 154.089 5.02996 154.34 5.01129C154.73 4.97201 155.122 4.97991 155.509 5.03483C155.745 5.05196 155.98 5.08193 156.216 5.09049C156.37 5.08699 156.525 5.07484 156.678 5.0541C156.592 4.99095 156.488 4.95651 156.381 4.95563C155.742 4.87602 155.121 4.69309 154.542 4.41401C154.496 4.39469 154.458 4.35985 154.435 4.31554L154.67 4.34337C154.76 4.34337 154.846 4.36264 154.936 4.36906C155.259 4.39047 155.578 4.42044 155.907 4.429C156.047 4.43214 156.186 4.41262 156.319 4.3712C156.479 4.32624 156.533 4.20208 156.421 4.08434C156.282 3.93362 156.125 3.79996 155.955 3.68616C155.888 3.64334 155.768 3.68616 155.674 3.68616C155.297 3.68616 154.923 3.71827 154.548 3.71185C154.287 3.71055 154.032 3.64197 153.805 3.51276C154.088 3.49777 154.319 3.49135 154.548 3.46994C154.777 3.44853 155 3.41428 155.225 3.37789C155.312 3.36151 155.397 3.33418 155.477 3.29654C155.749 3.18094 155.775 3.0054 155.556 2.81059C155.502 2.75522 155.433 2.7152 155.358 2.69454C155.283 2.67388 155.204 2.6733 155.128 2.69285C154.972 2.73352 154.818 2.78918 154.662 2.82986C154.47 2.88551 154.274 2.91926 154.075 2.93047L154.418 2.7164L153.3 2.42739C153.305 2.42042 153.309 2.41238 153.311 2.40385Z" fill="#26A6FB"/>
<path d="M23.3434 9.94155H14.1476C12.9194 9.93908 11.7416 9.45245 10.8699 8.58722C10.4365 8.1562 10.0927 7.64367 9.85831 7.07917C9.62392 6.51467 9.50356 5.90936 9.50419 5.29813L4.64453 5.29813V28.629C4.64453 29.5346 5.00425 30.403 5.64455 31.0433C6.28485 31.6836 7.15329 32.0433 8.05881 32.0433H23.3434C24.2489 32.0433 25.1174 31.6836 25.7577 31.0433C26.398 30.403 26.7577 29.5346 26.7577 28.629V13.3444C26.7547 12.4409 26.3936 11.5754 25.7536 10.9375C25.1137 10.2997 24.247 9.94154 23.3434 9.94155ZM21.4655 24.4978C21.4655 25.1014 21.2257 25.6804 20.7989 26.1073C20.372 26.5341 19.793 26.7739 19.1894 26.7739H12.1901C11.5864 26.7739 11.0075 26.5341 10.5806 26.1073C10.1537 25.6804 9.9139 25.1014 9.9139 24.4978V17.4871C9.9139 16.8834 10.1537 16.3045 10.5806 15.8776C11.0075 15.4507 11.5864 15.2109 12.1901 15.2109H19.2007C19.8044 15.2109 20.3834 15.4507 20.8103 15.8776C21.2371 16.3045 21.4769 16.8834 21.4769 17.4871L21.4655 24.4978Z" fill="white"/>
<path d="M20.3256 13.3672H11.0615C9.40845 13.3672 8.06836 14.7073 8.06836 16.3604V25.6245C8.06836 27.2776 9.40845 28.6177 11.0615 28.6177H20.3256C21.9787 28.6177 23.3188 27.2776 23.3188 25.6245V16.3604C23.3188 14.7073 21.9787 13.3672 20.3256 13.3672Z" fill="url(#paint0_radial_1_103)"/>
<path d="M19.2121 15.2217H12.1901C10.9393 15.2217 9.92529 16.2357 9.92529 17.4865V24.5086C9.92529 25.7594 10.9393 26.7734 12.1901 26.7734H19.2121C20.4629 26.7734 21.4769 25.7594 21.4769 24.5086V17.4865C21.4769 16.2357 20.4629 15.2217 19.2121 15.2217Z" fill="url(#paint1_radial_1_103)"/>
<path d="M27.9857 5.29815H9.50308C9.50245 5.90938 9.62281 6.51469 9.8572 7.07919C10.0916 7.64369 10.4354 8.15622 10.8688 8.58723C11.7405 9.45246 12.9183 9.9391 14.1465 9.94157H23.3423C24.2478 9.94157 25.1163 10.3013 25.7566 10.9416C26.3969 11.5819 26.7566 12.4503 26.7566 13.3558V28.6404C26.7566 29.546 26.3969 30.4144 25.7566 31.0547C25.1163 31.695 24.2478 32.0547 23.3423 32.0547H8.04632C7.1408 32.0547 6.27236 31.695 5.63206 31.0547C4.99176 30.4144 4.63204 29.546 4.63204 28.6404V5.29815H3.41428C2.50876 5.29815 1.64032 5.65786 1.00002 6.29816C0.359718 6.93847 0 7.8069 0 8.71242L0 33.2952C0 34.2008 0.359718 35.0692 1.00002 35.7095C1.64032 36.3498 2.50876 36.7095 3.41428 36.7095H27.9971C28.9026 36.7095 29.7711 36.3498 30.4114 35.7095C31.0517 35.0692 31.4114 34.2008 31.4114 33.2952V8.71242C31.4114 8.2631 31.3227 7.81819 31.1504 7.4032C30.9781 6.98822 30.7256 6.61133 30.4073 6.29413C30.0891 5.97694 29.7114 5.72568 29.2958 5.55477C28.8802 5.38386 28.435 5.29665 27.9857 5.29815Z" fill="#26A6FB"/>
<path fill-rule="evenodd" clip-rule="evenodd" d="M21.0996 19.388C21.2134 19.8774 20.6216 20.2302 20.2347 20.3326C15.375 21.539 13.8272 22.973 12.6777 26.7628C12.9744 24.9125 13.7943 23.1856 15.0406 21.7861C16.2868 20.3866 17.9074 19.3728 19.7112 18.8645C20.064 18.762 20.9289 18.7051 21.0996 19.388Z" fill="#26A6FB"/>
<path fill-rule="evenodd" clip-rule="evenodd" d="M12.5865 19.445C12.5865 19.445 12.8141 19.0239 13.1555 19.1605C13.4969 19.2971 13.3831 19.6271 13.3376 19.7751C12.5508 21.9643 12.1652 24.2775 12.1995 26.6036C11.8106 24.213 11.9466 21.7664 12.5978 19.4336L12.5865 19.445Z" fill="#26A6FB"/>
<path fill-rule="evenodd" clip-rule="evenodd" d="M16.6515 17.6573C16.6515 17.6573 17.3002 17.3614 17.5506 17.7142C17.6178 17.7911 17.6651 17.8832 17.6885 17.9825C17.7118 18.0819 17.7106 18.1855 17.6848 18.2842C17.6589 18.383 17.6094 18.4739 17.5404 18.5491C17.4714 18.6243 17.385 18.6815 17.2889 18.7157C14.4209 20.2066 12.9982 23.1998 12.4292 26.5344C12.4975 23.3591 14.1136 19.3417 16.6515 17.6573Z" fill="#26A6FB"/>
<path fill-rule="evenodd" clip-rule="evenodd" d="M19.4839 21.6862C19.4839 21.6862 20.0188 21.6862 20.0302 22.0959C20.0365 22.2402 19.9867 22.3812 19.8912 22.4895C19.7957 22.5977 19.6619 22.6647 19.518 22.6764C18.1526 22.6622 16.8117 23.0395 15.654 23.7636C14.4962 24.4876 13.5702 25.5282 12.9854 26.7621C13.4274 25.3577 14.2853 24.1205 15.4457 23.2141C16.606 22.3078 18.0142 21.775 19.4839 21.6862Z" fill="#26A6FB"/>
<path fill-rule="evenodd" clip-rule="evenodd" d="M17.367 23.4616L17.7312 24.5769L18.9035 24.5542L17.9702 25.2484L18.3344 26.3524L17.4012 25.6809L16.4566 26.3751L16.8094 25.2598L15.8647 24.5883L17.0256 24.5769L17.367 23.4616Z" fill="white"/>
<path fill-rule="evenodd" clip-rule="evenodd" d="M10.8918 21.2546L11.1308 21.9716L11.882 21.9602L11.2788 22.4041L11.5178 23.121L10.9032 22.6772L10.3114 23.1324L10.5277 22.4154L9.91309 21.983L10.6642 21.9716L10.8918 21.2546Z" fill="white"/>
<path fill-rule="evenodd" clip-rule="evenodd" d="M14.0559 17.0547L14.2835 17.7717L15.0347 17.7603L14.4429 18.2042L14.6705 18.9098L14.0673 18.4773L13.4755 18.9326L13.6917 18.2156L13.0771 17.7831L13.8283 17.7717L14.0559 17.0547Z" fill="white"/>
<path fill-rule="evenodd" clip-rule="evenodd" d="M11.882 19.8884C11.8664 19.9783 11.8196 20.0597 11.7499 20.1184C11.6801 20.1771 11.5919 20.2093 11.5007 20.2093C11.4096 20.2093 11.3213 20.1771 11.2516 20.1184C11.1818 20.0597 11.135 19.9783 11.1195 19.8884C11.1098 19.8328 11.1125 19.7758 11.1272 19.7214C11.1419 19.6669 11.1683 19.6163 11.2046 19.5732C11.241 19.53 11.2863 19.4953 11.3374 19.4715C11.3886 19.4477 11.4443 19.4354 11.5007 19.4354C11.5571 19.4354 11.6129 19.4477 11.664 19.4715C11.7151 19.4953 11.7605 19.53 11.7968 19.5732C11.8331 19.6163 11.8596 19.6669 11.8743 19.7214C11.889 19.7758 11.8916 19.8328 11.882 19.8884Z" fill="white"/>
<path fill-rule="evenodd" clip-rule="evenodd" d="M19.8817 23.9512C19.8839 24.0286 19.8628 24.105 19.8212 24.1703C19.7796 24.2357 19.7193 24.287 19.6481 24.3177C19.577 24.3484 19.4982 24.357 19.4221 24.3424C19.346 24.3279 19.276 24.2908 19.2212 24.236C19.1665 24.1812 19.1294 24.1112 19.1148 24.0351C19.1002 23.959 19.1089 23.8803 19.1396 23.8091C19.1702 23.738 19.2216 23.6777 19.2869 23.6361C19.3523 23.5944 19.4286 23.5734 19.5061 23.5756C19.6048 23.5785 19.6987 23.619 19.7685 23.6888C19.8383 23.7586 19.8788 23.8525 19.8817 23.9512Z" fill="white"/>
<path fill-rule="evenodd" clip-rule="evenodd" d="M15.3766 25.2829C15.3863 25.3385 15.3836 25.3955 15.3689 25.45C15.3542 25.5044 15.3277 25.555 15.2914 25.5982C15.2551 25.6413 15.2098 25.676 15.1586 25.6998C15.1075 25.7236 15.0518 25.736 14.9954 25.736C14.9389 25.736 14.8832 25.7236 14.8321 25.6998C14.7809 25.676 14.7356 25.6413 14.6993 25.5982C14.663 25.555 14.6365 25.5044 14.6218 25.45C14.6071 25.3955 14.6045 25.3385 14.6141 25.2829C14.6297 25.1931 14.6765 25.1116 14.7462 25.0529C14.816 24.9943 14.9042 24.9621 14.9954 24.9621C15.0865 24.9621 15.1747 24.9943 15.2445 25.0529C15.3142 25.1116 15.361 25.1931 15.3766 25.2829Z" fill="white"/>
<path fill-rule="evenodd" clip-rule="evenodd" d="M21.464 21.4024C21.4484 21.4922 21.4016 21.5736 21.3319 21.6323C21.2621 21.691 21.1739 21.7232 21.0828 21.7232C20.9916 21.7232 20.9034 21.691 20.8336 21.6323C20.7639 21.5736 20.7171 21.4922 20.7015 21.4024C20.6919 21.3468 20.6945 21.2898 20.7092 21.2353C20.7239 21.1809 20.7504 21.1303 20.7867 21.0871C20.823 21.044 20.8683 21.0093 20.9195 20.9854C20.9706 20.9616 21.0263 20.9493 21.0828 20.9493C21.1392 20.9493 21.1949 20.9616 21.246 20.9854C21.2972 21.0093 21.3425 21.044 21.3788 21.0871C21.4151 21.1303 21.4416 21.1809 21.4563 21.2353C21.471 21.2898 21.4737 21.3468 21.464 21.4024Z" fill="white"/>
<path fill-rule="evenodd" clip-rule="evenodd" d="M18.9951 18.2496C18.9951 18.3262 18.9724 18.401 18.9299 18.4646C18.8874 18.5282 18.8269 18.5778 18.7562 18.6071C18.6855 18.6364 18.6077 18.6441 18.5327 18.6291C18.4576 18.6142 18.3886 18.5774 18.3345 18.5232C18.2804 18.4691 18.2436 18.4002 18.2286 18.3251C18.2137 18.2501 18.2214 18.1722 18.2506 18.1015C18.2799 18.0308 18.3295 17.9704 18.3932 17.9279C18.4568 17.8854 18.5316 17.8627 18.6081 17.8627C18.7108 17.8627 18.8092 17.9034 18.8818 17.976C18.9543 18.0486 18.9951 18.147 18.9951 18.2496Z" fill="white"/>
<path fill-rule="evenodd" clip-rule="evenodd" d="M11.2669 24.0424C11.2669 24.1032 11.2489 24.1626 11.2151 24.2131C11.1814 24.2636 11.1334 24.303 11.0772 24.3263C11.0211 24.3495 10.9593 24.3556 10.8997 24.3438C10.8401 24.3319 10.7853 24.3027 10.7423 24.2597C10.6994 24.2167 10.6701 24.1619 10.6582 24.1023C10.6464 24.0427 10.6525 23.9809 10.6757 23.9248C10.699 23.8687 10.7384 23.8207 10.7889 23.7869C10.8394 23.7531 10.8989 23.7351 10.9596 23.7351C11.0411 23.7351 11.1193 23.7675 11.1769 23.8251C11.2345 23.8827 11.2669 23.9609 11.2669 24.0424Z" fill="white"/>
<path fill-rule="evenodd" clip-rule="evenodd" d="M19.7339 21.2321C19.7339 21.2773 19.7159 21.3208 19.6839 21.3528C19.6518 21.3848 19.6084 21.4028 19.5631 21.4028C19.5199 21.3999 19.4793 21.3806 19.4497 21.3489C19.4201 21.3172 19.4037 21.2754 19.4038 21.2321C19.4038 21.2111 19.4079 21.1904 19.4159 21.1711C19.4239 21.1518 19.4357 21.1342 19.4505 21.1194C19.4653 21.1046 19.4828 21.0929 19.5022 21.0849C19.5215 21.0768 19.5422 21.0727 19.5631 21.0727C19.6065 21.0726 19.6483 21.089 19.68 21.1186C19.7117 21.1482 19.731 21.1888 19.7339 21.2321Z" fill="white"/>
<path fill-rule="evenodd" clip-rule="evenodd" d="M15.9915 20.2638C15.9915 20.3061 15.9747 20.3466 15.9448 20.3765C15.915 20.4063 15.8744 20.4231 15.8322 20.4231C15.7899 20.4231 15.7494 20.4063 15.7195 20.3765C15.6896 20.3466 15.6729 20.3061 15.6729 20.2638C15.6729 20.2215 15.6896 20.181 15.7195 20.1511C15.7494 20.1212 15.7899 20.1045 15.8322 20.1045C15.8744 20.1045 15.915 20.1212 15.9448 20.1511C15.9747 20.181 15.9915 20.2215 15.9915 20.2638Z" fill="white"/>
<defs>
<radialGradient id="paint0_radial_1_103" cx="0" cy="0" r="1" gradientUnits="userSpaceOnUse" gradientTransform="translate(15.6936 20.9868) rotate(-140.019) scale(9.52052)">
<stop stop-color="#26A6FB"/>
<stop offset="1" stop-color="#1658B8"/>
</radialGradient>
<radialGradient id="paint1_radial_1_103" cx="0" cy="0" r="1" gradientUnits="userSpaceOnUse" gradientTransform="translate(15.6954 20.9919) scale(5.77013)">
<stop stop-color="#005DA8"/>
<stop offset="0.73" stop-color="#074A7C"/>
</radialGradient>
</defs>
</svg>
