<svg width="38" height="35" viewBox="0 0 38 35" fill="none" xmlns="http://www.w3.org/2000/svg">
<path d="M27.3623 0C25.6021 0.0273781 23.8804 0.518729 22.3709 1.42443C20.8614 2.33014 19.6176 3.61812 18.7651 5.15832C17.9126 3.61812 16.6688 2.33014 15.1593 1.42443C13.6498 0.518729 11.9281 0.0273781 10.1679 0C7.36199 0.121909 4.71838 1.34938 2.81461 3.41423C0.910836 5.47909 -0.0983355 8.2135 0.00756726 11.0201C0.00756726 21.6102 17.1332 33.8417 17.8616 34.3607L18.7651 35L19.6686 34.3607C20.397 33.8448 37.5226 21.6102 37.5226 11.0201C37.6285 8.2135 36.6194 5.47909 34.7156 3.41423C32.8118 1.34938 30.1682 0.121909 27.3623 0ZM18.7651 31.1516C13.6802 27.3532 3.13382 18.0213 3.13382 11.0201C3.02697 9.04225 3.7065 7.10243 5.02421 5.62367C6.34193 4.1449 8.19091 3.24716 10.1679 3.12626C12.1449 3.24716 13.9939 4.1449 15.3116 5.62367C16.6293 7.10243 17.3088 9.04225 17.202 11.0201H20.3282C20.2214 9.04225 20.9009 7.10243 22.2186 5.62367C23.5363 4.1449 25.3853 3.24716 27.3623 3.12626C29.3393 3.24716 31.1883 4.1449 32.506 5.62367C33.8237 7.10243 34.5032 9.04225 34.3964 11.0201C34.3964 18.0244 23.85 27.3532 18.7651 31.1516Z" fill="black"/>
</svg>
