<svg width="19" height="19" viewBox="0 0 19 19" fill="none" xmlns="http://www.w3.org/2000/svg">
<path d="M8.56737 0.938477C8.76857 0.988876 8.97399 1.02075 9.18105 1.03368C10.333 1.21647 11.4257 1.6667 12.3707 2.34797C13.3156 3.02925 14.0864 3.92246 14.6207 4.95539C15.1549 5.98831 15.4377 7.13198 15.4461 8.29391C15.4546 9.45585 15.1884 10.6035 14.6691 11.644C14.6259 11.7067 14.609 11.7838 14.6222 11.8587C14.6353 11.9337 14.6775 12.0005 14.7396 12.0448C15.635 12.9217 16.5203 13.7986 17.4031 14.693C17.6154 14.9059 17.7829 15.159 17.8958 15.4372C18.0086 15.7155 18.0646 16.0134 18.0604 16.3134C18.0562 16.6135 17.9919 16.9097 17.8712 17.1847C17.7506 17.4597 17.576 17.708 17.3578 17.9149C16.971 18.276 16.4607 18.4769 15.9305 18.4769C15.4003 18.4769 14.89 18.276 14.5031 17.9149C13.9574 17.4138 13.4443 16.8727 12.9161 16.3516C12.4785 15.9156 12.0383 15.4822 11.6057 15.0413C11.5783 15.0021 11.5364 14.9754 11.4893 14.967C11.4421 14.9585 11.3935 14.969 11.3542 14.9962C10.2191 15.5649 8.95949 15.8422 7.68958 15.8029C6.00385 15.7514 4.38843 15.1182 3.11952 14.0115C1.85599 12.9602 0.994476 11.5075 0.679826 9.89771C0.276887 7.97039 0.657392 5.96256 1.73796 4.31419C2.81853 2.66583 4.51101 1.51138 6.44456 1.10383C6.69607 1.04871 6.97526 1.01865 7.23935 0.978564C7.27205 0.978564 7.31229 0.978568 7.32486 0.943492L8.56737 0.938477ZM13.6907 8.37444C13.6902 7.25075 13.3554 6.15242 12.7286 5.21818C12.1018 4.28394 11.2111 3.5557 10.1689 3.12545C9.12683 2.69521 7.98008 2.58227 6.87356 2.80088C5.76704 3.0195 4.75039 3.55986 3.95202 4.35373C3.15365 5.1476 2.60938 6.15935 2.38797 7.26118C2.16655 8.36301 2.27792 9.50549 2.70801 10.5443C3.1381 11.5831 3.8676 12.4717 4.80439 13.0977C5.74117 13.7237 6.8432 14.0592 7.97128 14.0617C8.72245 14.065 9.46684 13.9202 10.1616 13.6357C10.8564 13.3512 11.4878 12.9325 12.0194 12.4039C12.551 11.8753 12.9724 11.2471 13.2593 10.5555C13.5461 9.86396 13.6927 9.1227 13.6907 8.37444Z" fill="#1E1E1E"/>
</svg>
